<svg id="Layer_1" data-name="Layer 1" xmlns="http://www.w3.org/2000/svg" viewBox="0 0 610.58 286.02"><defs><style>.cls-1{fill:#1d1d1b;}</style></defs><path class="cls-1" d="M357.5,227l.89.5a14.36,14.36,0,0,1,1-1.51,173.45,173.45,0,0,0,17.54-24.76c4.58-8,8.23-16.3,9.81-25.4a28.8,28.8,0,0,0,.28-10.47,10.23,10.23,0,0,0-2.65-5.63c-1.82-1.8-3.14-1.76-4.73.26a38.82,38.82,0,0,0-2.87,4.23c-10.75,18.66-18,38.46-19.22,60.17-.05.87,0,1.74,0,2.61m-93.65-42.18c-2.35-.31-4,.77-5.58,1.76a46.11,46.11,0,0,0-9.93,8.72A87.8,87.8,0,0,0,236,213.77c-5.28,10.16-10.37,20.42-13.29,31.57A43.91,43.91,0,0,0,221.17,256c0,6.28,4.58,9.09,10.23,6.28a28.16,28.16,0,0,0,6.76-4.94,44.35,44.35,0,0,0,10.62-16c3.09-7.83,5.94-15.77,8.62-23.76a163.43,163.43,0,0,0,6.81-27.43c.26-1.76.61-3.55-.36-5.4m-96.43-17.64-.95-.15c-1,1.31-2.18,2.56-3.1,3.95a89.08,89.08,0,0,0-10.91,23.72A196,196,0,0,0,144.31,246c-.14,4.8-.06,9.67,1.49,14.32,1.7,5.1,6.34,6.47,10.37,2.88a24.15,24.15,0,0,0,4.44-5.64,44.37,44.37,0,0,0,5.22-15,291.38,291.38,0,0,0,4.84-54.5c-.08-5.58-1.14-11.16-1.88-16.72a22.92,22.92,0,0,0-1.37-4.15M362,248.06a63.14,63.14,0,0,0,4.52,6.5c3.28,3.72,7.56,4.64,12,2.47a23.94,23.94,0,0,0,6.87-4.76c6.28-6.63,12.51-13.32,18.35-20.34,9.37-11.29,18.3-22.93,27.61-34.25,6.06-7.36,12.44-14.46,18.77-21.6a25.66,25.66,0,0,1,4.56-3.87,8.8,8.8,0,0,1,5.75-1.46c4.54.33,7.37,3.83,6.4,8.28-1.57,7.15-3.36,14.27-5,21.42q-4,17.61-7.77,35.28a46.29,46.29,0,0,0-.77,5.67,10.6,10.6,0,0,0,.05,3.28,3.85,3.85,0,0,0,1.37,2.48c1.2.6,2-.59,2.59-1.5,1.35-2.11,2.65-4.26,3.83-6.47,5.14-9.67,10.31-19.32,16.66-28.26a124.7,124.7,0,0,1,23.29-25.1c5.73-4.62,12-5.32,18.7-3.07a28.39,28.39,0,0,1,14.6,11.15,191.51,191.51,0,0,1,19.92,36.73c2.83,7,5.89,13.86,9.23,20.59a34,34,0,0,0,6,8.2c3.59,3.76,6.83,4,11,.91,3.22-2.38,6.2-5.1,9.22-7.74,3.4-3,6.72-6,10.1-9a8.82,8.82,0,0,1,5.42-2.36,4.15,4.15,0,0,1,4.69,2.93,6.35,6.35,0,0,1-3.76,8.78c-2,.77-4,1.39-5.94,2.14a34.16,34.16,0,0,0-13.15,8.8c-2.73,2.94-5.43,5.93-8.3,8.74a40.34,40.34,0,0,1-6.05,4.93c-3.45,2.24-5.69,2.13-8.79-.5a40.62,40.62,0,0,1-5.8-6.07,98.59,98.59,0,0,1-12.13-21.11c-3.19-7.24-6-14.65-9.13-22a98.28,98.28,0,0,0-11.41-20.83,52.08,52.08,0,0,0-5.22-5.8c-2.74-2.69-6-3.34-9.75-2.37a27.44,27.44,0,0,0-9.41,4.61,65.13,65.13,0,0,0-12.33,12.71c-8.35,10.72-14.45,22.7-19.35,35.28-3.64,9.34-7.2,18.75-10.09,28.35-2.34,7.75-8.39,7.22-12.76,3.86a10.11,10.11,0,0,1-3.64-5.75c-1.12-4.57-2.19-9.18-3-13.81-2.74-16.2-1.23-32.22,2.06-48.17.78-3.74,1.52-7.48,2.25-11.22.13-.64.17-1.29.33-2.62-1,1.18-1.65,1.79-2.15,2.5-2.75,3.83-5.53,7.64-8.19,11.54-9.54,13.93-19.62,27.47-30.49,40.37a139.87,139.87,0,0,1-11.55,12.29,63.74,63.74,0,0,1-10.6,7.87c-7.45,4.47-14.2,3.67-20.8-2a35.78,35.78,0,0,1-8.3-11c-.56-1.05-1.09-2.1-1.87-3.57-1.37,1.37-2.47,2.47-3.6,3.55-4.29,4.09-8.48,8.27-12.93,12.19-4.07,3.58-9.1,9.05-16.75,9.05-11.46,0-25.19-22.68-27.47-27.42a113.58,113.58,0,0,1-9-28.63c-1.28-6.8-2.07-13.69-3.09-20.54-.2-1.33-.47-2.65-.7-4l-.74,0c-.2,1-.4,2-.57,3.07a146.15,146.15,0,0,1-22.07,55.9,62.66,62.66,0,0,1-10.64,12.25c-5.77,5.17-12.3,6.74-19.84,5-9-2-14.48-7.31-16.27-16.41-1.16-5.91-.7-11.79,0-17.69,1.91-15.61,8.12-29.52,16.56-42.58A198.42,198.42,0,0,1,249.11,172c1.62-1.63,3.16-3.33,5-5.31a21.57,21.57,0,0,0-3.12-2.44c-3.23-1.61-6.47-3.26-9.83-4.54A201.83,201.83,0,0,0,203.29,149a86.11,86.11,0,0,0-20.4-1.28c-4.55.31-5.44,1.26-4.47,5.66,3.67,16.72,3.71,33.71,4,50.66.21,11.24,0,22.51-.45,33.74a90.47,90.47,0,0,1-5.5,28,41.16,41.16,0,0,1-6.67,12.08,21,21,0,0,1-29.2,3.31,19.84,19.84,0,0,1-5.88-8.24,52,52,0,0,1-3.92-15.73c-2.51-25.51.5-50.31,10-74.21,3.39-8.58,7-17.08,10.5-25.62a13,13,0,0,1,.77-1.65,53.26,53.26,0,0,0,6.4-15.1c.9-4,3.64-7.12,6.6-9.91,2.23-2.09,5.07-2.79,8-3,7.69-.64,15.22.6,22.71,2.14,16.49,3.41,32.19,9.27,47.66,15.78,7.31,3.08,14.61,6.16,21.85,9.41,2.35,1.06,3.9,1.33,5.32-2.2a25.75,25.75,0,0,0,1.7-6.37c2.34-18.83,4.75-37.66,6.79-56.52a499.64,499.64,0,0,1,17.2-86.43c.87-3,2.27-3.73,5.39-3.3,3.53.5,5.51,2.73,6.7,5.8,2.24,5.83,2.17,11.75.64,17.76-3.15,12.45-6.41,24.88-9.28,37.41A553.73,553.73,0,0,0,288.65,127a308.64,308.64,0,0,0-1.12,52.65c1.12,16.66,3,33.2,7.73,49.3,1.79,6.08,3.87,12.06,7.18,17.5,1.3,2.12,7.81,16.73,14.52,17.69s14-4.55,26.54-21.46a3.15,3.15,0,0,0,.82-3.25,94.84,94.84,0,0,1-1.3-28.18c2.51-23.09,10.77-43.74,26.09-61.37a46.13,46.13,0,0,1,4.31-4.63,27.42,27.42,0,0,1,5.1-3.68c4.41-2.37,9-1.34,12.14,2.53,4,4.92,5.77,10.73,6.55,16.89,1.29,10.08-.32,19.82-3.39,29.39A115.64,115.64,0,0,1,382.76,214c-6.48,10.87-13.22,21.58-19.84,32.36-.26.41-.49.86-.94,1.67"/><path class="cls-1" d="M26.54,166.55l-.67.37q.25-13.3.18-26.55,0-10.12-.21-20.2A365.33,365.33,0,0,1,36,73.86c4.14-13.83,10.72-28.39,17.6-39,5.5-8.46,13.67-18.2,22.07-18.2a11.07,11.07,0,0,1,1.63.12,9.81,9.81,0,0,1,1,.22c2.38.62,4.46,2.5,6.18,5.56C91,34.06,91.16,56.48,87.3,69.44,83,83.75,81.53,86.52,76.53,95.75c-1.6,3-3.8,7-6.72,12.64-6,11.6-17,26.42-25.16,36.84-8.91,11.29-16.52,20.24-18.11,21.32m97.81,6.86C118.92,163.72,108,157.16,93.64,155a69.17,69.17,0,0,0-29.29,1.9l-10.09,2.94,5.93-8.68a38.69,38.69,0,0,1,3.16-4,90.62,90.62,0,0,0,8-10.43c.72-1,1.6-2.29,2.61-3.72,8.41-11.86,25.92-36.56,30.56-67.78C110,28.37,95.66,10.56,81.73,6.51a47.7,47.7,0,0,0-6.15-1.37C63.2,3.22,56,7.89,51.1,12.15l-.17.15c-4.77,4.16-18.68,16.27-29.15,54.92-.16-4.2-.39-8.39-.72-12.58-.16-2-1-2.74-3.29-3a5.74,5.74,0,0,0-5.57,2.5,16.63,16.63,0,0,0-3.14,11c0,.69.06,1.38.08,2.08a21.6,21.6,0,0,0-.08,3c.34,8.34.75,16.68.88,25,0,1.82,0,3.64,0,5.48-.16,10.49-4.48,63.38-5.11,71.71-.21,2.71-.38,5.42-.53,8.31l-.07,1.35-.92,1C0,186.79-.95,191.44,1,194.7a7.35,7.35,0,0,0,1.4,1.63l1.3,1.14,0,1.72c-.13,16.83.86,30.14,1.59,40,.31,4.34.59,8.1.69,11.12.08,2.73,2.92,9.51,8,10.29a7.34,7.34,0,0,0,2.47,0,5.86,5.86,0,0,0,4.18-2.33c1.78-2.61,1.32-8.92,1.47-9.29q1-19.21,2.06-38.45c.38-6.55.67-13.08.94-19.6,9.62-7,28.78-20.69,45.44-23.81,8.38-1.59,15.17-1.93,20.76-1.07,8,1.23,13.67,5.1,16.79,11.52,4.17,8.55-.41,23.46-2.58,29.49C98.44,226.86,81.71,253.76,58,264.18c-16.72,7.35-24.27,5.75-28.77,4.79a15.08,15.08,0,0,0-3.9-.49c-5.19.35-10.74,4.76-10.71,11.28a5.22,5.22,0,0,0,1.58,3.91c1.5,1.42,3.63,1.74,6.13,1.74.94,0,1.93-.05,3-.09.87,0,1.78-.08,2.73-.1,5.28-.1,12-.78,25.09-5.14,18-6,41.05-23.28,48.4-32.09A138.69,138.69,0,0,0,123,212.72c6.62-15.84,7.07-29.07,1.33-39.31M20.69,258.21c1.78-2.61,1.43-8.9,1.47-9.29q1-19.21,2.06-38.45"/></svg>