<svg xmlns="http://www.w3.org/2000/svg" xmlns:xlink="http://www.w3.org/1999/xlink" width="100" height="28" viewBox="0 0 100 28">
    <defs>
        <path id="a" d="M15.228 23.332H.051V.108h15.177v23.224z"/>
        <path id="c" d="M4.077.138v3.794H.048V.138h4.03z"/>
        <path id="e" d="M8.674.085H0v18.906h17.347V.085H8.674z"/>
    </defs>
    <g fill="none" fill-rule="evenodd">
        <path fill="#FD0" d="M74.658 4.873c.072-.095.148-.196.234-.304 1.68-2.124.877.794 2.91.472 1.238-.196 2.654-2.154.299-2.832-1.791-.516-3.35 1.373-4.002 2.32.185.103.367.214.546.335l.013.009"/>
        <g transform="translate(63.55 3.583)">
            <mask id="b" fill="#fff">
                <use xlink:href="#a"/>
            </mask>
            <path fill="#020302" d="M9.835 15.409h-5.36c-1.415 0-2.121-.496-2.121-1.488 0-.972 1.514-1.457 4.543-1.457 1.899 0 3.514-.547 4.847-1.64 1.414-1.173 2.12-2.7 2.12-4.583 0-1.741-.666-3.198-1.999-4.372a7.523 7.523 0 0 0-.757-.58 7.079 7.079 0 0 0-.558-.343h-.002A6.77 6.77 0 0 0 7.23.108c-1.777 0-3.331.567-4.665 1.7C1.152 3.024.445 4.5.445 6.242c0 1.154.242 2.206.727 3.156.545 1.073 1.313 1.802 2.302 2.186v.06c-2.282.487-3.423 1.57-3.423 3.25 0 1.66.879 2.66 2.635 3.005.344.121 1.081.181 2.212.181.889 0 2.019-.03 3.392-.09 3.11-.183 4.666.546 4.666 2.185 0 .729-.414 1.367-1.242 1.913l.909 1.245c1.736-.91 2.605-2.317 2.605-4.22 0-2.469-1.797-3.703-5.393-3.703M4.443 3.144c.647-1.133 1.546-1.7 2.697-1.7 1.15 0 2.05.557 2.695 1.67.546.931.819 2.024.819 3.279 0 1.234-.273 2.317-.819 3.248-.646 1.113-1.545 1.67-2.695 1.67-1.131 0-2.02-.557-2.666-1.67-.545-.931-.818-2.014-.818-3.248 0-1.235.263-2.317.787-3.25" mask="url(#b)"/>
        </g>
        <path fill="#020302" d="M92.773 11.646c-.121-2.145-.677-3.927-1.666-5.344-1.172-1.659-2.767-2.488-4.786-2.488-2.444 0-4.322.733-5.635 2.2-1.313 1.468-1.97 3.436-1.97 5.904 0 2.186.708 3.927 2.121 5.222 1.354 1.275 3.131 1.913 5.332 1.913 1.879 0 3.413-.526 4.605-1.58l-.788-1.061c-.868.728-1.959 1.093-3.272 1.093-1.494 0-2.665-.537-3.514-1.61-.787-.99-1.181-2.266-1.181-3.825v-.424h10.754zm-6.755-6.587c2.382 0 3.544 1.77 3.483 5.312H82.02c.14-3.541 1.474-5.312 4-5.312zM33.624 11.646c-.121-2.145-.676-3.927-1.666-5.344-1.172-1.659-2.767-2.488-4.786-2.488-2.444 0-4.322.733-5.635 2.2-1.313 1.468-1.969 3.436-1.969 5.904 0 2.186.707 3.927 2.12 5.222 1.353 1.275 3.13 1.913 5.332 1.913 1.878 0 3.413-.526 4.605-1.58l-.788-1.061c-.869.728-1.959 1.093-3.272 1.093-1.494 0-2.665-.537-3.514-1.61-.787-.99-1.18-2.266-1.18-3.825v-.424h10.753zm-6.755-6.587c2.383 0 3.544 1.77 3.484 5.312H22.87c.141-3.541 1.474-5.312 4-5.312zM62.586 4.117c-.535-.466-1.176-.698-1.924-.698-1.393 0-2.575.505-3.544 1.518a5.975 5.975 0 0 0-1.545 2.823h-.06V3.904h-3.151v12.174c0 .627-.146 1.048-.44 1.26-.292.212-.761.318-1.407.318h-.182v1.306h7.453v-1.306h-.304c-.586 0-1.01-.04-1.272-.121-.465-.142-.697-.446-.697-.911v-3.248c0-1.842.333-3.592 1-5.252.868-2.165 2.09-3.248 3.665-3.248h.06v.06c-.545.345-.818.83-.818 1.458 0 .526.187.951.56 1.274.375.325.824.486 1.35.486 1.373 0 2.06-.738 2.06-2.216 0-.748-.269-1.355-.804-1.821M42.318 3.783c-2.161 0-3.888.738-5.18 2.216-1.232 1.396-1.848 3.198-1.848 5.404s.616 4.007 1.848 5.403c1.292 1.478 3.019 2.216 5.18 2.216 2.161 0 3.888-.738 5.18-2.216 1.232-1.396 1.848-3.197 1.848-5.403 0-2.206-.616-4.008-1.848-5.404-1.292-1.478-3.019-2.216-5.18-2.216m0 14.025c-2.484 0-3.726-2.135-3.726-6.405 0-4.25 1.242-6.376 3.726-6.376s3.726 2.126 3.726 6.376c0 4.27-1.242 6.405-3.726 6.405"/>
        <g transform="translate(94.3 15.029)">
            <mask id="d" fill="#fff">
                <use xlink:href="#c"/>
            </mask>
            <path fill="#020302" d="M3.471.684A2.022 2.022 0 0 0 2.077.138C1.533.138 1.058.32.654.684.25 1.05.048 1.494.048 2.02c0 .547.202 1.002.606 1.366.404.365.879.546 1.423.546.546 0 1.016-.181 1.41-.546.393-.364.59-.82.59-1.366 0-.526-.202-.971-.606-1.336" mask="url(#d)"/>
        </g>
        <g transform="translate(0 .062)">
            <mask id="f" fill="#fff">
                <use xlink:href="#e"/>
            </mask>
            <path fill="#020302" d="M11.62 11.53h1.297c1.455 0 2.183.303 2.183 1.315v.78c0 1.303-.51 2.133-1.528 2.858-.945.676-1.98 1.014-3.453 1.014-1.127 0-2.155-.248-3.082-.742-2.182-1.12-3.273-3.268-3.273-7.155 0-2.274.409-3.952 1.227-5.386 1.073-1.877 2.746-2.818 5.02-2.818 1.726 0 3.172.487 4.336 1.459l.954-1.238C13.92.595 12.192.085 10.12.085c-2.927 0-5.364.996-7.31 2.99C.937 4.986 0 7.294 0 9.995c0 2.538.863 4.613 2.591 6.227 1.963 1.846 4.346 2.769 7.147 2.769 2.581 0 4.636-.758 6.164-2.274.909-.906 1.372-1.952 1.39-3.138l.055-3.27H11.62v1.222z" mask="url(#f)"/>
        </g>
    </g>
</svg>
