<svg xmlns="http://www.w3.org/2000/svg" viewBox="0 0 85 28" class="icon_icon__3WWAe icon_kiabi__2MB8w kiabiLogo_desktop__loaQ_" data-testid="kiabi-logo"><g fill="#040037"><path d="M.034 19.962h.6v6.382h-.6zM6.554 26.344h-.6v-.828h-.017a2.183 2.183 0 01-1.837.94 2.476 2.476 0 110-4.95 2.134 2.134 0 011.837.949h.017v-.828h.6zm-2.458-.431a1.932 1.932 0 10-1.932-1.915 1.872 1.872 0 001.931 1.915zM10.65 22.17a1.471 1.471 0 011.285-.664 1.771 1.771 0 011.588.905 1.793 1.793 0 011.587-.905 1.848 1.848 0 011.889 2.035v2.8h-.6V23.61c0-1.009-.483-1.561-1.285-1.561s-1.285.552-1.285 1.561v2.734h-.6V23.61c0-1.009-.483-1.561-1.285-1.561s-1.285.552-1.285 1.561v2.734h-.6v-4.718h.6zM20.512 21.506a2.475 2.475 0 11-2.458 2.51 2.5 2.5 0 012.458-2.51zm.009 4.407a1.933 1.933 0 000-3.864 1.933 1.933 0 000 3.864zM28.711 26.344h-.6v-.828h-.017a2.221 2.221 0 01-1.837.94 2.476 2.476 0 110-4.95 2.222 2.222 0 011.837.932h.017v-2.475h.6zm-2.458-.431a1.932 1.932 0 10-1.932-1.915 1.872 1.872 0 001.929 1.915zM30.278 24.206a1.876 1.876 0 001.828 1.708 1.789 1.789 0 001.691-1.113h.638a2.353 2.353 0 11.146-.767c0 .061-.009.112-.009.173zm3.683-.544a1.858 1.858 0 00-3.683 0zM42.737 26.346h-.6v-.828h-.017a2.184 2.184 0 01-1.838.94 2.476 2.476 0 110-4.95 2.135 2.135 0 011.838.949h.017v-.828h.6zm-2.458-.431a1.932 1.932 0 10-1.932-1.914 1.872 1.872 0 001.932 1.912zm1.009-5.408l-.285.5-1.707-.923.276-.518zM46.271 21.627h.6v.828h.017a2.2 2.2 0 011.837-.949 2.476 2.476 0 110 4.95 2.213 2.213 0 01-1.837-.94h-.017V28h-.6zm2.458.423a1.932 1.932 0 000 3.864 1.932 1.932 0 100-3.864zM52.59 24.206a1.875 1.875 0 001.828 1.708 1.79 1.79 0 001.691-1.113h.638a2.349 2.349 0 11.147-.767c0 .061-.009.112-.009.173zm3.683-.544a1.858 1.858 0 00-3.683 0zM58.385 22.17h-.992v-.54h.992v-1.665h.6v1.665h1.13v.543h-1.13v4.174h-.6zM60.769 19.962h.6v1.087h-.6zm0 1.665h.6v4.718h-.6zM63.065 22.17h-.992v-.54h.992v-1.665h.6v1.665h1.13v.543h-1.122v4.174h-.6zM65.705 24.95c.017.9.63.966.845.966a.794.794 0 00.88-.845c0-.647-.587-.794-.94-.94-.483-.164-1.25-.423-1.25-1.311a1.285 1.285 0 011.345-1.311 1.262 1.262 0 011.285 1.267v.018h-.6a.712.712 0 00-.707-.742.7.7 0 00-.715.707c0 .5.5.673.845.785.552.181 1.346.483 1.346 1.458v.017a1.361 1.361 0 01-1.484 1.44 1.4 1.4 0 01-1.449-1.457v-.052zM71.301 21.627h.6v.828h.017a2.2 2.2 0 011.837-.949 2.476 2.476 0 110 4.95 2.214 2.214 0 01-1.837-.94h-.017V28h-.6zm2.458.423a1.932 1.932 0 000 3.864 1.932 1.932 0 100-3.864zM77.191 21.627h.6v.681h.017a1.344 1.344 0 011.328-.8v.638a1.455 1.455 0 00-1.018.466 1.547 1.547 0 00-.328.975v2.76h-.6zM79.786 19.962h.6v1.087h-.6zm0 1.665h.6v4.718h-.6zM82.667 23.947l-1.613-2.32h.724l1.243 1.82 1.234-1.82h.733l-1.613 2.32 1.613 2.4h-.716l-1.25-1.889-1.251 1.889h-.716z"></path></g><g fill="#040037"><path d="M46.365.574a.934.934 0 00-1.057-.562h-4.474c-.374 0-.535-.032-.312.426.139.282.815 1.527.815 1.527.153.313.085.32-.048.534-.1.158-7.739 12.988-8.405 14.051-.529.844-.7 1.016.146 1.016h1.047c.487 0 .558.007 1.111-.919.3-.5 2.545-4.168 2.545-4.168h8.853a.539.539 0 01.443.293c.542 1.03 1.376 2.612 1.965 3.723.354.671.614 1.06 1.1 1.06h4.437c.842 0 .812-.01.163-1.181-.839-1.527-7.157-13.6-8.323-15.8m-7.783 10.159l3.579-6.141c.329-.605.283-.479.538 0 .123.24 3.262 6.137 3.262 6.137zM20.022.017h-3.148c-2.429 1.882-2.516 1.922-11.33 8.629V.494a.485.485 0 00-.486-.486H.485A.485.485 0 000 .494v16.574a.488.488 0 00.485.487h4.573a.487.487 0 00.486-.487V9.917c1.338 1.328 8.606 7.641 8.606 7.641h5.988c.455 0 .455-.24.071-.564-5.379-4.562-8.285-7.084-9.431-8.091-.517-.453-.777-.578-.384-.9.548-.443 9.436-7.406 9.678-7.65s-.048-.34-.048-.34M28.696.008h-4.528a.5.5 0 00-.512.485v16.574a.5.5 0 00.512.488h4.528a.5.5 0 00.511-.488V.493a.5.5 0 00-.511-.485M84.489.008h-4.527a.5.5 0 00-.511.485v16.574a.5.5 0 00.511.488h4.527a.5.5 0 00.511-.488V.493a.5.5 0 00-.511-.485M71.728 8.23c.778-.34 3.943-.616 3.943-4.122C75.671.067 71.263.096 70.243 0H59.202a.5.5 0 00-.486.5v16.587a.467.467 0 00.486.466l9.9-.005c1.607 0 7.157-.562 7.3-4.7.13-3.747-3.894-4.334-4.672-4.626m-7.038-.723v-5.62h2.2v.013a2.848 2.848 0 013.176 2.952 2.955 2.955 0 01-3.176 2.955v.011h-2.2zm2.561 8.71v.014h-2.561v-6.9h2.561v.017c2.634-.017 3.8 1.626 3.8 3.434a3.488 3.488 0 01-3.8 3.433"></path></g></svg>