<svg xmlns="http://www.w3.org/2000/svg" viewBox="0 0 324.74 128.16"><defs><style>.cls-1{fill:#fbba07;}</style></defs><g id="Livello_2" data-name="Livello 2"><g id="Livello_1-2" data-name="Livello 1"><path class="cls-1" d="M95.28,64.08c0,28.48-16.22,48.47-39.46,48.62-23.24-.15-39.47-20.14-39.46-48.62S32.59,15.61,55.8,15.47C79,15.61,95.28,35.6,95.28,64.08M57.71,0,55.83,0H55.6L53.06.05c-15.65.7-29,7.28-38.58,19C5.14,30.55,0,46.53,0,64.08s5.14,33.53,14.48,45c9.76,12,23.4,18.55,39.49,19.06l2.16,0,2.44,0c15.63-.67,29-7.25,38.56-19,9.36-11.47,14.51-27.47,14.51-45s-5.15-33.57-14.51-45C87.36,7.06,73.73.49,57.71,0"/><polygon class="cls-1" points="169.07 101.42 133.33 2.7 115.87 2.7 160.84 125.46 177.21 125.46 222.45 2.7 205.1 2.7 169.07 101.42"/><path class="cls-1" d="M282.27,55.49l-2.8-.57c-17.17-3.51-32-6.53-32-20.05,0-14.32,14.23-19.41,26.41-19.41,19.77,0,31,8.71,31.66,24.52l.17,4.53h16.41l-.24-4.92C320.76,14.43,303.26,0,273.87,0h0c-11.17,0-21.5,2.94-29.1,8.26-8.94,6.27-13.67,15.47-13.67,26.61,0,26.05,24.46,31.1,42.32,34.78l1.79.37c17.8,3.63,33.17,6.76,33.17,21.52,0,16.71-17.7,21.16-28.16,21.16-13.38,0-24.06-3.53-30.08-9.94-4.46-4.75-6.48-11.22-6-19.2l.28-5H227.82l-.06,4.66c-.14,12.85,3.62,23.26,11.17,30.93,9,9.16,23.29,14,41.29,14,10.63,0,21.18-2.87,28.94-7.89,10.19-6.59,15.58-16.52,15.58-28.73,0-27.34-25.56-32.58-42.47-36.05"/></g></g></svg>