<svg version="1.1" viewBox="0 0 145.47 29.082" xmlns="http://www.w3.org/2000/svg">
 <g transform="translate(-17.26 -35.983)" style="shape-inside:url(#rect4939);white-space:pre" aria-label="Y A Y A">
  <path d="m41.635 35.983-10.234 16.328v12.754h-3.8672v-12.344l-10.273-16.738h4.2773l7.9492 13.008 8.0273-13.008z"/>
  <path d="m82.65 65.065h-4.1211l-2.8516-8.1055h-12.578l-2.8516 8.1055h-3.9258l10.586-29.082h5.1562zm-8.1641-11.426-5.0977-14.277-5.1172 14.277z"/>
  <path d="m121.71 35.983-10.234 16.328v12.754h-3.8672v-12.344l-10.273-16.738h4.2773l7.9492 13.008 8.0274-13.008z"/>
  <path d="m162.73 65.065h-4.1211l-2.8516-8.1055h-12.578l-2.8516 8.1055h-3.9258l10.586-29.082h5.1562zm-8.1641-11.426-5.0976-14.277-5.1172 14.277z"/>
 </g>
</svg>
