<?xml version="1.0" encoding="utf-8"?>
<!-- Generator: Adobe Illustrator 16.0.0, SVG Export Plug-In . SVG Version: 6.00 Build 0)  -->
<!DOCTYPE svg PUBLIC "-//W3C//DTD SVG 1.1//EN" "http://www.w3.org/Graphics/SVG/1.1/DTD/svg11.dtd">
<svg version="1.1" id="Layer_1" xmlns="http://www.w3.org/2000/svg" xmlns:xlink="http://www.w3.org/1999/xlink" x="0px" y="0px"
	   viewBox="0 0 305 75" enable-background="new 0 0 305 75" xml:space="preserve">
<g>
	<path d="M89.746,25.975H66.242c-6.084,0.109-10.944,5.113-10.862,11.207v23.268c-0.1,6.094,4.768,11.115,10.862,11.225h23.504
		c6.094-0.109,10.953-5.131,10.861-11.225V37.164C100.68,31.079,95.83,26.084,89.746,25.975z M93.732,40.297v17.236
		c0.064,3.943-3.069,7.186-7.011,7.258H69.257c-3.941-0.072-7.075-3.324-7.011-7.258V40.297c-0.064-3.941,3.069-7.185,7.011-7.256
		h17.464C90.654,33.112,93.796,36.364,93.732,40.297z"/>
	<path d="M139.659,25.975h-23.613c-6.084,0.109-10.944,5.113-10.862,11.207v23.268c-0.1,6.094,4.768,11.115,10.862,11.225h23.613
		c6.093-0.109,10.952-5.131,10.861-11.225V37.164C150.593,31.079,145.743,26.084,139.659,25.975z M143.645,40.297v17.236
		c0.064,3.943-3.069,7.186-7.01,7.258H119.17c-3.914-0.109-7.02-3.344-6.957-7.258V40.297c-0.063-3.941,3.07-7.185,7.012-7.256
		h17.464C140.603,33.15,143.709,36.383,143.645,40.297z"/>
	<path d="M238.984,25.975H215.39c-6.084,0.109-10.942,5.113-10.86,11.207v23.268c-0.082,6.084,4.767,11.096,10.86,11.207h23.595
		c6.085-0.111,10.943-5.113,10.862-11.207V37.164C249.919,31.079,245.062,26.084,238.984,25.975z M242.973,40.297v17.236
		c0.062,3.943-3.07,7.186-7.012,7.258h-17.465c-3.94-0.072-7.074-3.324-7.012-7.258V40.297c-0.063-3.941,3.071-7.185,7.012-7.256
		h17.465C239.893,33.112,243.034,36.364,242.973,40.297z"/>
	<path d="M288.816,25.975h-23.594c-6.086,0.109-10.944,5.113-10.863,11.207v23.268c-0.081,6.084,4.77,11.096,10.863,11.207h23.594
		c6.086-0.111,10.943-5.113,10.861-11.207V37.164C299.75,31.079,294.902,26.084,288.816,25.975z M292.803,40.297v17.236
		c0.064,3.943-3.068,7.186-7.012,7.258h-17.463c-3.941-0.072-7.074-3.324-7.01-7.258V40.297c-0.064-3.941,3.068-7.185,7.01-7.256
		h17.463C289.734,33.112,292.867,36.364,292.803,40.297L292.803,40.297z"/>
	<path d="M39.641,25.975H16.047c-1.317,0.01-2.616,0.272-3.833,0.763V3.18H5.322v57.287c-0.082,6.086,4.768,11.098,10.862,11.207
		h23.458c6.094-0.109,10.953-5.131,10.862-11.225V37.164C50.576,31.079,45.727,26.084,39.641,25.975z M43.629,40.297v17.236
		c0.063,3.943-3.07,7.186-7.012,7.258H19.126c-3.942-0.072-7.075-3.324-7.011-7.258V40.297c0-3.896,3.115-7.084,7.011-7.166H36.59
		C40.504,33.204,43.638,36.392,43.629,40.297z"/>
	<path d="M189.362,26.184h-23.521c-1.317,0.009-2.616,0.272-3.834,0.763V3.416h-6.893v68.34h6.893v-0.609
		c0-2.76-0.135-30.432-0.135-30.641c0-3.896,3.114-7.084,7.011-7.166h17.464c3.942,0.073,7.075,3.323,7.012,7.256V71.82h6.956
		V37.463c0.128-6.103-4.712-11.152-10.815-11.279C189.452,26.184,189.407,26.184,189.362,26.184z"/>
</g>
</svg>
