<?xml version="1.0" encoding="UTF-8" standalone="no"?>
<!-- Created with Inkscape (http://www.inkscape.org/) -->
<svg
   xmlns:svg="http://www.w3.org/2000/svg"
   xmlns="http://www.w3.org/2000/svg"
   version="1.0"
   width="595"
   height="148"
   viewBox="0 -0.142 595 148"
   id="svg2"
   xml:space="preserve">
	<defs
   id="defs4">
	</defs>
	<g
   id="g6">
		<g
   id="g8">
			<rect
   width="99.980003"
   height="16.572001"
   x="0"
   y="125.342"
   style="fill:#ff0000"
   id="rect10" /> 
		</g>
		<g
   id="g12">
			<path
   d="M 155.029,79.443 L 155.029,62.861 C 140.302,61.552 125.576,56.777 125.576,40.019 C 125.576,21.699 143.642,16.23 159.863,16.23 C 176.601,16.23 189.804,22.343 194.287,35.566 C 195.264,38.418 195.771,41.738 195.879,43.281 C 195.859,43.271 213.897,43.213 213.897,43.213 C 213.897,41.182 213.301,35.098 210.948,28.809 C 203.877,9.902 184.014,0 160.273,0 C 137.421,0 107.802,10.039 107.802,39.824 C 107.803,69.492 131.25,78.721 155.029,79.443"
   style="fill:#ff0000"
   id="path14" />
		</g>
		<g
   id="g16">
			<polygon
   points="226.299,142.148 242.93,142.148 242.959,3.398 226.309,3.398 226.299,142.148 "
   style="fill:#ff0000"
   id="polygon18" />
		</g>
		<g
   id="g20">
			<rect
   width="99.980003"
   height="16.572001"
   x="0"
   y="63.213001"
   style="fill:#ff0000"
   id="rect22" /> 
		</g>
		<g
   id="g24">
			<rect
   width="99.980003"
   height="16.572001"
   x="0"
   y="3.398"
   style="fill:#ff0000"
   id="rect26" /> 
		</g>
		<g
   id="g28">
			<path
   d="M 290.029,3.398 L 257.412,3.398 L 257.412,19.961 C 257.412,19.961 279.131,20 290.029,20.156 C 302.773,20.351 311.836,29.746 311.836,41.543 C 311.836,53.516 301.035,62.93 290.049,63.086 C 278.633,63.252 257.442,63.223 257.442,63.223 L 257.413,79.766 L 289.942,79.766 C 310.831,80.225 328.448,62.754 328.448,41.582 C 328.447,20.469 312.031,3.008 290.029,3.398"
   style="fill:#ff0000"
   id="path30" />
		</g>
		<g
   id="g32">
			<rect
   width="16.396"
   height="108.281"
   x="531.81598"
   y="33.867001"
   style="fill:#ff0000"
   id="rect34" /> 
		</g>
		<g
   id="g36">
			<rect
   width="109.102"
   height="16.572001"
   x="485.45901"
   y="3.398"
   style="fill:#ff0000"
   id="rect38" /> 
		</g>
		<g
   id="g40">
			<rect
   width="16.572001"
   height="138.75"
   x="459.82401"
   y="3.398"
   style="fill:#ff0000"
   id="rect42" /> 
		</g>
		<g
   id="g44">
			<polygon
   points="420.732,90.605 401.172,90.605 406.699,99.463 433.545,142.422 453.115,142.422 426.27,99.463 420.732,90.605 "
   style="fill:#ff0000"
   id="polygon46" />
		</g>
		<g
   id="g48">
			<rect
   width="16.572001"
   height="138.75"
   x="338.28101"
   y="3.398"
   style="fill:#ff0000"
   id="rect50" /> 
		</g>
		<g
   id="g52">
			<path
   d="M 446.436,41.592 C 446.436,20.488 430.02,3.028 408.008,3.399 L 369.346,3.399 L 369.346,19.98 C 369.346,19.98 397.002,20 408.008,20.175 C 420.752,20.37 429.815,29.765 429.815,41.552 C 429.815,53.515 419.014,62.929 408.038,63.085 C 396.612,63.261 369.327,63.251 369.327,63.251 L 369.347,79.794 L 407.921,79.794 C 428.809,80.234 446.436,62.773 446.436,41.592"
   style="fill:#ff0000"
   id="path54" />
		</g>
		<g
   id="g56">
			<path
   d="M 217.773,99.453 C 214.755,74.941 192.558,66.123 169.589,64.033 L 169.511,80.605 C 183.613,82.041 197.734,85.82 200.732,99.462 L 200.732,99.462 C 201.113,101.191 201.318,103.085 201.318,105.136 C 201.318,123.495 181.25,130.429 163.515,130.429 C 143.769,130.429 132.285,125.585 126.376,110.195 C 125.009,106.621 124.521,102.382 124.355,99.463 C 124.287,98.32 124.257,97.383 124.257,96.738 L 106.112,96.738 C 106.112,97.47 106.132,98.398 106.171,99.463 C 106.337,103.272 106.903,108.887 108.544,113.887 C 116.308,137.754 135.829,147.403 163.476,147.403 C 192.822,147.403 218.124,133.233 218.124,105.333 C 218.124,103.272 217.997,101.329 217.772,99.464"
   style="fill:#ff0000"
   id="path58" />
		</g>
	</g>
</svg>