<?xml version="1.0" encoding="UTF-8"?>
<svg xmlns="http://www.w3.org/2000/svg" xmlns:xlink="http://www.w3.org/1999/xlink" width="835.96pt" height="114.69pt" viewBox="0 0 835.96 114.69" version="1.1">
<defs>
<clipPath id="clip1">
  <path d="M 747 4 L 835.960938 4 L 835.960938 112 L 747 112 Z M 747 4 "/>
</clipPath>
<clipPath id="clip2">
  <path d="M 520 1 L 636 1 L 636 114.691406 L 520 114.691406 Z M 520 1 "/>
</clipPath>
</defs>
<g id="surface1">
<g clip-path="url(#clip1)" clip-rule="nonzero">
<path style=" stroke:none;fill-rule:nonzero;fill:rgb(13.699341%,12.199402%,12.5%);fill-opacity:1;" d="M 823.070313 79.832031 L 784.21875 79.832031 C 766.726563 78.125 760.527344 62.628906 760.527344 47.074219 C 760.527344 32.71875 766.769531 19.132813 784.21875 17.179688 L 833.671875 17.179688 L 833.671875 4.21875 L 785.386719 4.21875 C 764.648438 4.21875 749.335938 19.6875 747.816406 41.515625 C 747.074219 46.4375 747.394531 50.609375 747.816406 54.734375 C 750.089844 76.925781 763.769531 92.796875 785.386719 92.796875 L 821.371094 92.796875 C 824.394531 92.796875 824.242188 98.113281 821.546875 98.113281 L 751.417969 98.113281 L 751.417969 111.035156 L 823.375 111.097656 C 839.972656 111.097656 840.453125 79.832031 823.070313 79.832031 "/>
</g>
<path style=" stroke:none;fill-rule:nonzero;fill:rgb(13.699341%,12.199402%,12.5%);fill-opacity:1;" d="M 696.109375 4.21875 L 696.109375 111.003906 L 683.152344 111.003906 L 683.152344 4.21875 L 696.109375 4.21875 "/>
<g clip-path="url(#clip2)" clip-rule="nonzero">
<path style=" stroke:none;fill-rule:nonzero;fill:rgb(13.699341%,12.199402%,12.5%);fill-opacity:1;" d="M 578.386719 101.464844 C 553.847656 101.464844 534.207031 83.175781 534.207031 58.21875 C 534.207031 33.320313 553.847656 15.039063 578.386719 15.039063 C 602.90625 15.039063 622.800781 33.320313 622.800781 58.21875 C 622.800781 83.175781 602.90625 101.464844 578.386719 101.464844 Z M 578.386719 1.808594 C 546.667969 1.808594 520.976563 27.074219 520.976563 58.21875 C 520.976563 89.382813 546.667969 114.691406 578.386719 114.691406 C 610.101563 114.691406 635.796875 89.382813 635.796875 58.21875 C 635.796875 27.074219 610.101563 1.808594 578.386719 1.808594 "/>
</g>
<path style=" stroke:none;fill-rule:nonzero;fill:rgb(13.699341%,12.199402%,12.5%);fill-opacity:1;" d="M 410.789063 111.003906 L 410.789063 4.21875 L 497.085938 4.21875 L 497.085938 17.449219 L 424.019531 17.449219 L 424.019531 79.835938 L 452.175781 79.835938 L 452.175781 92.796875 L 424.019531 92.796875 L 424.019531 111.003906 L 410.789063 111.003906 "/>
<path style=" stroke:none;fill-rule:nonzero;fill:rgb(13.699341%,12.199402%,12.5%);fill-opacity:1;" d="M 49.453125 79.835938 L 12.988281 79.835938 L 12.964844 17.277344 L 49.453125 17.277344 C 66.90625 19.230469 73.148438 32.816406 73.148438 47.175781 C 73.148438 62.730469 66.949219 78.125 49.453125 79.835938 Z M 85.855469 41.613281 C 84.339844 19.785156 69.023438 4.316406 48.285156 4.316406 L 0 4.316406 L 0 111.003906 L 12.964844 111.003906 L 12.964844 92.796875 L 48.285156 92.796875 C 69.90625 92.796875 83.585938 77.023438 85.855469 54.832031 C 86.28125 50.707031 86.597656 46.535156 85.855469 41.613281 "/>
<path style=" stroke:none;fill-rule:nonzero;fill:rgb(13.699341%,12.199402%,12.5%);fill-opacity:1;" d="M 323.28125 77.078125 C 318.582031 79.105469 313.835938 79.691406 310.8125 79.835938 L 278.277344 79.835938 L 278.277344 17.277344 L 311.265625 17.277344 C 311.503906 17.289063 311.789063 17.3125 312.050781 17.328125 L 312.058594 17.316406 C 312.058594 17.316406 326.050781 17.171875 333.042969 27.101563 C 333.082031 27.152344 333.101563 27.203125 333.136719 27.257813 C 336.765625 31.945313 338.628906 38.261719 338.628906 46.480469 L 338.628906 53.332031 C 338.628906 64.90625 332.84375 72.765625 323.28125 77.078125 Z M 332.382813 87.917969 C 345.453125 78.992188 351.609375 70.222656 351.609375 48.046875 C 351.609375 34.019531 348.046875 23.058594 341.214844 15.414063 C 339.105469 13.054688 336.421875 11.023438 333.339844 9.300781 C 333.175781 9.207031 333.015625 9.117188 332.851563 9.027344 C 332.226563 8.691406 331.582031 8.375 330.929688 8.0625 C 330.769531 7.988281 330.609375 7.910156 330.449219 7.835938 C 330.097656 7.675781 329.734375 7.527344 329.375 7.371094 C 322.585938 4.546875 315.917969 4.238281 313.964844 4.21875 L 265.3125 4.21875 L 265.3125 111.003906 L 278.277344 111.003906 L 278.277344 92.796875 C 280.355469 92.738281 292.667969 92.714844 294.605469 92.730469 C 320.410156 92.910156 333.8125 99.488281 342.542969 111.003906 L 357.191406 111.003906 C 352.476563 103.195313 346.511719 96.335938 332.382813 87.917969 "/>
<path style=" stroke:none;fill-rule:nonzero;fill:rgb(13.725281%,12.156677%,12.548828%);fill-opacity:1;" d="M 143.929688 79.835938 L 168.472656 25.09375 L 192.910156 79.835938 Z M 168.472656 -0.00390625 L 117.152344 111.003906 L 130.117188 111.003906 L 138.113281 92.796875 L 198.699219 92.796875 L 206.828125 111.003906 L 219.792969 111.003906 L 168.472656 -0.00390625 "/>
</g>
</svg>
