<svg width="340" height="64" viewBox="0 0 340 64" fill="none" xmlns="http://www.w3.org/2000/svg">
<g clip-path="url(#clip0_123_1599)">
<path d="M36.35 11.04H43.61C49.29 13.37 47.54 21.8 47.69 27.43L75.15 27.51C77.3031 27.3562 79.3933 26.7167 81.2638 25.6394C83.1343 24.5622 84.7365 23.0751 85.95 21.29C88.95 17.29 88.95 10.96 86.73 6.61C80.73 -1.82 70.02 0.280004 60.78 0.130004H0V62.58H36.31V11.04" fill="#0062AA"/>
<path d="M92.71 62.58C87.5 54.42 87.35 42.42 81.29 34.58C78.65 32.18 76.47 30.12 72.35 29.88C63.23 29.81 56.47 29.65 47.54 29.73C47.07 33.22 42.68 32.18 40.27 32.73C36.49 34.73 37.65 39.8 37.48 43.53H38.02C39.5 42.13 41.91 42.36 43.85 42.6C44.78 43.22 46.02 43.84 46.41 45V62.56H92.71" fill="#C90044"/>
<path d="M56.9 34.19C55.666 35.1044 54.3222 35.8603 52.9 36.44L51.96 34.57C53.21 33.95 55.23 34.26 56.86 34.19" fill="white"/>
<path d="M108.43 18.38V27.69H97.4299V0.979996H113.33C124.55 0.979996 128.25 3.39 128.25 8.59C128.25 11.67 126.52 14.26 122.59 15.12C126.14 16.12 128.29 16.83 128.29 22.21C128.29 25.69 128.15 26.88 129.46 26.88V27.69H118.22C117.767 26.1734 117.574 24.591 117.65 23.01C117.65 19.52 116.91 18.37 111.76 18.37H108.4L108.43 18.38ZM108.4 12.51H112.74C116.16 12.51 117.98 11.84 117.98 9.99C117.98 8.14 116.11 7.2 113.54 7.2H108.4V12.51Z" fill="#0062AA"/>
<path d="M131.84 0.979996H142.84V16.98C142.84 19.62 143.5 21.88 148.03 21.88C152.03 21.88 153.18 19.88 153.18 16.98V0.979996H164.18V16.08C164.18 24.65 159.18 28.4 148 28.4C137.58 28.4 131.78 25.25 131.78 16.05V0.979996" fill="#0062AA"/>
<path d="M187.22 8.69C187.134 8.27651 186.943 7.89234 186.664 7.57508C186.385 7.25782 186.029 7.01832 185.63 6.88C184.722 6.52826 183.753 6.36165 182.78 6.39C180.35 6.39 179.27 6.95001 179.27 7.92001C179.27 11.92 198.63 9.44 198.63 19.16C198.63 25.36 192.13 28.36 182.87 28.36C173.99 28.36 168.19 24.24 167.96 19.42H178.52C178.642 19.8899 178.871 20.3255 179.188 20.6931C179.505 21.0606 179.903 21.3504 180.35 21.54C181.332 21.9862 182.401 22.2115 183.48 22.2C186.24 22.2 188.06 21.5 188.06 20.2C188.06 16.2 168.71 18.93 168.71 8.73C168.71 3.05 174.88 0.190002 183.29 0.190002C192.65 0.190002 196.9 3.98 197.7 8.65H187.22" fill="#0062AA"/>
<path d="M222.22 8.69C222.132 8.27728 221.94 7.89402 221.662 7.57704C221.383 7.26006 221.028 7.02003 220.63 6.88C219.722 6.53007 218.753 6.36352 217.78 6.39C215.35 6.39 214.27 6.95001 214.27 7.92001C214.27 11.92 233.63 9.44 233.63 19.16C233.63 25.36 227.13 28.36 217.87 28.36C208.99 28.36 203.19 24.24 202.96 19.42H213.52C213.642 19.8899 213.871 20.3255 214.188 20.6931C214.505 21.0606 214.903 21.3504 215.35 21.54C216.332 21.9871 217.401 22.2125 218.48 22.2C221.24 22.2 223.06 21.5 223.06 20.2C223.06 16.2 203.7 18.93 203.7 8.73C203.7 3.05 209.87 0.190002 218.29 0.190002C227.64 0.190002 231.9 3.98 232.69 8.65H222.22" fill="#0062AA"/>
<path d="M237.63 27.7V0.979996H265.07V7.21H248.66V11.03H262.55V17.27H248.66V21.46H265.73V27.7H237.63Z" fill="#0062AA"/>
<path d="M271.38 27.7V0.979996H282.42V21.46H297.57V27.7H271.38Z" fill="#0062AA"/>
<path d="M302.57 27.7V0.979996H313.61V21.46H328.76V27.7H302.57Z" fill="#0062AA"/>
<path d="M94.97 62.63L105.85 35.91H115.97L126.85 62.63H116.94L115.76 59.1H105.85L104.71 62.63H94.97ZM110.83 43.96L107.75 53.54H114.03L110.83 43.96Z" fill="#0062AA"/>
<path d="M123.94 35.91H151.77V42.92H142.83V62.63H132.88V42.92H123.94V35.91Z" fill="#0062AA"/>
<path d="M155.48 62.63V35.91H166.7V44.93H177.31V35.91H188.53V62.63H177.31V52.27H166.7V62.63H155.48Z" fill="#0062AA"/>
<path d="M252.76 35.91H280.6V42.92H271.66V62.63H261.7V42.92H252.76V35.91Z" fill="#0062AA"/>
<path d="M295.06 35.91H285.11V62.63H295.06V35.91Z" fill="#0062AA"/>
<path d="M320.22 46.12C319.93 43.33 317.95 41.74 314.83 41.74C311.33 41.74 309.22 44.37 309.22 49.53C309.22 53.28 310.14 56.8 315.22 56.8C318.43 56.8 319.95 54.8 320.33 52.28H329.9C329.01 59.18 323.41 63.34 315.39 63.34C305.39 63.34 299.28 57.92 299.28 49.23C299.28 40.54 305.95 35.23 314.42 35.23C323.7 35.23 328.89 39.23 329.69 46.15H320.22" fill="#0062AA"/>
<path d="M222.27 62.63V35.91H249.36V42.14H233.16V45.97H246.87V52.2H233.16V56.39H250V62.63H222.27Z" fill="#0062AA"/>
<path d="M192.43 62.63V35.91H203.32V56.39H218.26V62.63H192.43Z" fill="#0062AA"/>
<path d="M331.93 58.2H330.43V57.69H334.07V58.22H332.57V62.59H331.93V58.2Z" fill="#0062AA"/>
<path d="M338.74 60.42C338.74 59.73 338.66 58.91 338.67 58.3C338.51 58.87 338.3 59.49 338.05 60.16L337.19 62.54H336.71L335.92 60.21C335.68 59.52 335.49 58.88 335.35 58.3C335.35 58.91 335.3 59.73 335.26 60.47L335.13 62.57H334.52L334.87 57.67H335.67L336.51 60.04C336.71 60.64 336.88 61.18 337.01 61.69C337.13 61.2 337.31 60.69 337.52 60.04L338.4 57.67H339.22L339.52 62.57H338.9L338.74 60.42Z" fill="#0062AA"/>
</g>
<defs>
<clipPath id="clip0_123_1599">
<rect width="339.48" height="63.33" fill="white"/>
</clipPath>
</defs>
</svg>
