<?xml version="1.0" encoding="utf-8"?>
<svg width="220" height="49" viewBox="0 0 220 49" fill="none" xmlns="http://www.w3.org/2000/svg">
<path fill-rule="evenodd" clip-rule="evenodd" d="M220 12.5C220 6.15419 216.89 1 209.689 1H200V24H209.689C216.89 24 220 18.8458 220 12.5ZM215 12C215 16.4864 213.72 20 207.748 20H204V4H207.748C213.72 4 215 7.5136 215 12ZM202 32H196.971L191 46.0665L184.992 32H180V32.5768H180.447C181.278 32.5768 181.815 32.652 182.062 32.8024C182.307 32.9529 182.468 33.2249 182.545 33.6172C182.621 34.0103 182.66 34.8833 182.66 36.2375V43.6345C182.66 45.0384 182.611 45.9998 182.514 46.5179C182.418 47.036 182.149 47.4725 181.711 47.8278C181.272 48.1831 180.701 48.3816 180 48.4237V49H185.863V48.4237C185.105 48.3735 184.517 48.1627 184.098 47.7904C183.679 47.4189 183.429 46.9862 183.348 46.4928C183.268 45.9998 183.228 45.072 183.228 43.7098V33.7553L189.767 49H190.335L196.826 33.7553V44.5743C196.826 45.9959 196.788 46.9004 196.712 47.2889C196.635 47.6778 196.461 47.9638 196.192 48.1474C195.922 48.3314 195.44 48.4237 194.748 48.4237H194.167V49H202V48.4237H201.275C200.533 48.4237 200.031 48.3229 199.77 48.1228C199.508 47.9217 199.345 47.6144 199.28 47.2013C199.215 46.7873 199.184 45.9122 199.184 44.5743V36.2375C199.184 34.8251 199.226 33.9304 199.31 33.5547C199.395 33.1786 199.562 32.9214 199.812 32.7837C200.062 32.6456 200.59 32.5768 201.395 32.5768H202V32ZM179 24H196V20.5207H183.078V13.7884H194.825V10.5028H183.078V4.47929H195.772V1H179V24ZM169.145 4.47929H177V1H157V4.47929H164.82V24H169.145V4.47929ZM161.993 32H157V32.5768H157.447C158.277 32.5768 158.815 32.652 159.061 32.8024C159.307 32.9529 159.468 33.2249 159.545 33.6172C159.621 34.0103 159.66 34.8833 159.66 36.2375V43.6345C159.66 45.0384 159.611 45.9998 159.514 46.5179C159.418 47.036 159.15 47.4725 158.711 47.8278C158.272 48.1831 157.701 48.3816 157 48.4237V49H162.863V48.4237C162.105 48.3735 161.517 48.1627 161.098 47.7904C160.679 47.4189 160.429 46.9862 160.348 46.4928C160.268 45.9998 160.228 45.072 160.228 43.7098V33.7553L166.767 49H167.335L173.826 33.7553V44.5743C173.826 45.9959 173.788 46.9004 173.711 47.2889C173.635 47.6778 173.461 47.9638 173.192 48.1474C172.922 48.3314 172.44 48.4237 171.747 48.4237H171.167V49H179V48.4237H178.275C177.533 48.4237 177.032 48.3229 176.77 48.1228C176.508 47.9217 176.345 47.6144 176.28 47.2013C176.215 46.7873 176.184 45.9122 176.184 44.5743V36.2375C176.184 34.8251 176.226 33.9304 176.311 33.5547C176.395 33.1786 176.562 32.9214 176.812 32.7837C177.062 32.6456 177.59 32.5768 178.396 32.5768H179V32H173.971L168 46.0665L161.993 32ZM139.063 12.5C139.063 7.92106 141.143 3.40909 146.117 3.40909C149.499 3.40909 151.222 5.41436 151.904 8.15503H155.967C155.48 3.00812 151.351 0.0334848 146.117 0C139.161 0 135 5.68182 135 12.5C135 19.3182 139.161 25 146.117 25C151.741 25 155.675 21.0564 156 15.3407H152.034C151.709 18.8172 149.726 21.5909 146.117 21.5909C141.143 21.5909 139.063 17.0789 139.063 12.5ZM116 24H132V20.5207H119.839V13.7884H130.894V10.5028H119.839V4.47929H131.785V1H116V24ZM96 24H113V20.5207H100.355V1H96V24ZM76 24H92V20.5207H79.8386V13.7884H90.8943V10.5028H79.8386V4.47929H91.7854V1H76V24ZM76.3403 48.4237H76V49H89.6477L90 43.7098H89.417C89.1253 44.9632 88.7261 45.9475 88.2197 46.662C87.7134 47.3768 87.1806 47.849 86.6215 48.0786C86.0629 48.3085 85.3497 48.4237 84.4828 48.4237H83.2554C82.1533 48.4237 81.4768 48.246 81.2255 47.8907C80.9746 47.5354 80.8489 46.3508 80.8489 44.3367V40.3121H82.6597C83.3646 40.3121 83.8648 40.3602 84.161 40.4562C84.4564 40.5523 84.6814 40.7614 84.8355 41.0831C84.9892 41.4049 85.0662 42.0382 85.0662 42.9825H85.6373V37.1653H85.0662C85.0662 38.0013 85.0155 38.5632 84.9142 38.8513C84.8128 39.1399 84.6023 39.3554 84.2822 39.4974C83.962 39.6393 83.4013 39.7103 82.5991 39.7103H80.8489V32.5768H83.1339C84.2842 32.5768 85.1189 32.6418 85.6373 32.771C86.1556 32.9006 86.6034 33.2143 86.9804 33.7116C87.357 34.2084 87.675 35.0512 87.9342 36.2375H88.5052L88.1167 32H76.3403V32.5768C77.1343 32.5768 77.6546 32.6584 77.9018 32.8216C78.149 32.9843 78.3072 33.2704 78.3756 33.6801C78.4448 34.0894 78.479 34.942 78.479 36.2375V44.5743C78.479 45.9959 78.4465 46.8796 78.3818 47.226C78.3171 47.5732 78.1651 47.8592 77.9265 48.0849C77.6872 48.3106 77.1586 48.4237 76.3403 48.4237ZM67.1671 49H75V48.4237H74.2747C73.5333 48.4237 73.0317 48.3229 72.7699 48.1228C72.508 47.9217 72.3445 47.6144 72.2802 47.2013C72.2158 46.7873 72.1835 45.9122 72.1835 44.5743V36.2375C72.1835 34.8251 72.2261 33.9304 72.3105 33.5547C72.3953 33.1786 72.5621 32.9214 72.8121 32.7837C73.0617 32.6456 73.5899 32.5768 74.396 32.5768H75V32H69.9714L64.0002 46.0665L57.9926 32H53V32.5768H53.4475C54.2773 32.5768 54.8154 32.652 55.0613 32.8024C55.3068 32.9529 55.4682 33.2249 55.5444 33.6172C55.6211 34.0103 55.6596 34.8833 55.6596 36.2375V43.6345C55.6596 45.0384 55.6112 45.9998 55.5145 46.5179C55.4178 47.036 55.1498 47.4725 54.7105 47.8278C54.2712 48.1831 53.7012 48.3816 53 48.4237V49H58.863V48.4237C58.1053 48.3735 57.5168 48.1627 57.0976 47.7904C56.6788 47.4189 56.4288 46.9862 56.3485 46.4928C56.2681 45.9998 56.2276 45.072 56.2276 43.7098V33.7553L62.7671 49H63.3355L69.8263 33.7553V44.5743C69.8263 45.9959 69.7882 46.9004 69.7116 47.2889C69.6349 47.6778 69.4616 47.9638 69.1919 48.1474C68.9219 48.3314 68.4404 48.4237 67.7474 48.4237H67.1671V49ZM57.9619 6.51724C57.9619 4.111 60.3453 3.40909 62.2386 3.40909C65.0463 3.40909 67.07 4.54503 67.2663 7.62055H71.3467C71.3467 2.64021 67.2663 0 62.4021 0C58.1904 0 53.881 2.23924 53.881 7.01867C53.881 9.49188 55.0564 11.9655 59.0391 13.0684C62.2386 13.9704 64.3607 14.4052 65.9928 15.0402C66.9396 15.4077 67.9187 16.1431 67.9187 17.9813C67.9187 19.7861 66.5802 21.5909 62.9896 21.5909C59.7247 21.5909 57.0804 20.1536 57.0804 16.4771H53C53.0977 22.3933 57.4071 25 62.7283 25C67.364 25 72 22.8608 72 17.5134C72 15.0402 70.5307 12.3661 67.4617 11.4306C66.254 11.0627 61.0959 9.69236 60.737 9.59233C59.0718 9.12439 57.9619 8.18851 57.9619 6.51724ZM43.1667 49H51V48.4237H50.2747C49.5329 48.4237 49.0317 48.3229 48.7699 48.1228C48.5076 47.9217 48.3445 47.6144 48.2802 47.2013C48.2154 46.7873 48.1835 45.9122 48.1835 44.5743V36.2375C48.1835 34.8251 48.2257 33.9304 48.3101 33.5547C48.3949 33.1786 48.5621 32.9214 48.8121 32.7837C49.0617 32.6456 49.5895 32.5768 50.3955 32.5768H51V32H45.9714L39.9998 46.0665L33.9922 32H29V32.5768H29.4471C30.2769 32.5768 30.815 32.652 31.0609 32.8024C31.3068 32.9529 31.4678 33.2249 31.5444 33.6172C31.6211 34.0103 31.6592 34.8833 31.6592 36.2375V43.6345C31.6592 45.0384 31.6108 45.9998 31.5141 46.5179C31.4174 47.036 31.1494 47.4725 30.7105 47.8278C30.2708 48.1831 29.7012 48.3816 29 48.4237V49H34.8626V48.4237C34.1049 48.3735 33.5168 48.1627 33.098 47.7904C32.6788 47.4189 32.4288 46.9862 32.348 46.4928C32.2677 45.9998 32.2276 45.072 32.2276 43.7098V33.7553L38.7671 49H39.3351L45.8263 33.7553V44.5743C45.8263 45.9959 45.7882 46.9004 45.7116 47.2889C45.6349 47.6778 45.4616 47.9638 45.1915 48.1474C44.9215 48.3314 44.44 48.4237 43.747 48.4237H43.1667V49ZM27.6477 49L28 43.7098H27.4166C27.1253 44.9632 26.7261 45.9475 26.2197 46.662C25.7134 47.3768 25.1806 47.849 24.6215 48.0786C24.0629 48.3085 23.3497 48.4237 22.4828 48.4237H21.2554C20.1533 48.4237 19.4768 48.246 19.2259 47.8907C18.9742 47.5354 18.8489 46.3508 18.8489 44.3367V40.3121H20.6597C21.3646 40.3121 21.8648 40.3602 22.1606 40.4562C22.4564 40.5523 22.6814 40.7614 22.8351 41.0831C22.9888 41.4049 23.0662 42.0382 23.0662 42.9825H23.6373V37.1653H23.0662C23.0662 38.0013 23.0155 38.5632 22.9142 38.8513C22.8128 39.1399 22.6023 39.3554 22.2822 39.4974C21.962 39.6393 21.4013 39.7103 20.5991 39.7103H18.8489V32.5768H21.1339C22.2838 32.5768 23.1185 32.6418 23.6373 32.771C24.1556 32.9006 24.6034 33.2143 24.9804 33.7116C25.357 34.2084 25.6746 35.0512 25.9342 36.2375H26.5052L26.1163 32H14.3403V32.5768C15.1343 32.5768 15.6546 32.6584 15.9018 32.8216C16.1486 32.9843 16.3068 33.2704 16.376 33.6801C16.4444 34.0894 16.479 34.942 16.479 36.2375V44.5743C16.479 45.9959 16.4465 46.8796 16.3818 47.226C16.3171 47.5732 16.1651 47.8592 15.9261 48.0849C15.6868 48.3106 15.1586 48.4237 14.3403 48.4237H14V49H27.6477ZM12.4265 36.2375H13L12.8655 32H0.0980742V32.5768H0.390641C1.22903 32.5768 1.77196 32.652 2.02025 32.8024C2.26853 32.9529 2.43075 33.2249 2.50855 33.6172C2.58552 34.0103 2.62483 34.8833 2.62483 36.2375V44.5743C2.62483 45.9959 2.58552 46.9004 2.50855 47.2889C2.43075 47.6778 2.25612 47.9638 1.98342 48.1474C1.71113 48.3314 1.22117 48.4237 0.513131 48.4237H0V49H7.68993V48.4237H7.12838C6.37192 48.4237 5.86128 48.3229 5.59685 48.1228C5.33242 47.9217 5.16731 47.6144 5.10234 47.2013C5.03696 46.7873 5.00509 45.9122 5.00509 44.5743V40.3495H6.55483C7.36839 40.3495 7.91587 40.4269 8.19685 40.5816C8.47742 40.7367 8.68888 41.0249 8.83164 41.4469C8.97358 41.869 9.04517 42.4432 9.04517 43.1704H9.65513V37.178H9.04517C9.04517 38.2227 8.88006 38.9189 8.55066 39.2653C8.22126 39.6121 7.55585 39.7855 6.55483 39.7855H5.00509V32.5768H8.23947C9.2649 32.5768 9.99322 32.652 10.4244 32.8024C10.8556 32.9529 11.2686 33.3312 11.663 33.9372C12.0582 34.5433 12.3118 35.3096 12.4265 36.2375ZM108.493 32L100 49H101.506L110 32H108.493ZM125.676 32H118V32.5768H118.314C119.179 32.5768 119.738 32.652 119.995 32.8024C120.25 32.9529 120.418 33.2249 120.498 33.6172C120.577 34.0103 120.617 34.8833 120.617 36.2375V44.5743C120.617 45.9959 120.577 46.9004 120.498 47.2889C120.418 47.6778 120.238 47.9638 119.957 48.1474C119.676 48.3314 119.171 48.4237 118.441 48.4237H118V49H125.676V48.4237H125.235C124.472 48.4237 123.954 48.3229 123.681 48.1228C123.409 47.9217 123.238 47.6144 123.171 47.2013C123.104 46.7873 123.071 45.9122 123.071 44.5743V40.4749H131.979V44.5743C131.979 45.9959 131.942 46.9004 131.866 47.2889C131.791 47.6778 131.612 47.9638 131.331 48.1474C131.05 48.3314 130.549 48.4237 129.828 48.4237H129.236V49H137V48.4237H136.61C135.847 48.4237 135.327 48.3229 135.05 48.1228C134.773 47.9217 134.603 47.6144 134.54 47.2013C134.477 46.7873 134.446 45.9122 134.446 44.5743V36.2375C134.446 34.8251 134.49 33.9304 134.577 33.5547C134.666 33.1786 134.84 32.9214 135.1 32.7837C135.36 32.6456 135.909 32.5768 136.748 32.5768H137V32H129.236V32.5768H129.689C130.553 32.5768 131.113 32.652 131.369 32.8024C131.625 32.9529 131.791 33.2249 131.866 33.6172C131.942 34.0103 131.979 34.8833 131.979 36.2375V39.61H123.071V36.2375C123.071 34.8251 123.115 33.9304 123.203 33.5547C123.291 33.1786 123.465 32.9214 123.725 32.7837C123.985 32.6456 124.53 32.5768 125.361 32.5768H125.676V32ZM140.561 33.4322C138.854 35.0542 138 37.2047 138 39.8848C138 42.633 138.842 44.8391 140.525 46.5035C142.208 48.168 144.362 49 146.988 49C149.687 49 151.864 48.168 153.519 46.5035C155.173 44.8391 156 42.6629 156 39.9742C156 37.2008 155.136 35.0116 153.409 33.4071C151.681 31.8025 149.529 31 146.952 31C144.399 31 142.269 31.8112 140.561 33.4322ZM141 39.9753C141 37.3458 141.513 35.3588 142.54 34.0152C143.566 32.6716 145.043 32 146.971 32C148.929 32 150.424 32.6878 151.454 34.0638C152.485 35.4406 153 37.4189 153 39.9998C153 42.6546 152.477 44.6511 151.431 45.9906C150.384 47.3305 148.961 48 147.159 48C145.106 48 143.566 47.3305 142.54 45.9906C141.513 44.6511 141 42.6463 141 39.9753ZM204.34 48.4237H204V49H217.648L218 43.7098H217.417C217.125 44.9632 216.726 45.9475 216.219 46.662C215.713 47.3768 215.181 47.849 214.622 48.0786C214.063 48.3085 213.35 48.4237 212.483 48.4237H211.255C210.154 48.4237 209.477 48.246 209.226 47.8907C208.974 47.5354 208.849 46.3508 208.849 44.3367V40.3121H210.66C211.364 40.3121 211.865 40.3602 212.161 40.4562C212.456 40.5523 212.681 40.7614 212.835 41.0831C212.989 41.4049 213.066 42.0382 213.066 42.9825H213.637V37.1653H213.066C213.066 38.0013 213.015 38.5632 212.914 38.8513C212.813 39.1399 212.602 39.3554 212.282 39.4974C211.962 39.6393 211.401 39.7103 210.599 39.7103H208.849V32.5768H211.134C212.284 32.5768 213.119 32.6418 213.637 32.771C214.156 32.9006 214.604 33.2143 214.98 33.7116C215.357 34.2084 215.675 35.0512 215.934 36.2375H216.506L216.116 32H204.34V32.5768C205.134 32.5768 205.655 32.6584 205.902 32.8216C206.149 32.9843 206.307 33.2704 206.376 33.6801C206.445 34.0894 206.479 34.942 206.479 36.2375V44.5743C206.479 45.9959 206.447 46.8796 206.382 47.226C206.317 47.5732 206.165 47.8592 205.926 48.0849C205.687 48.3106 205.159 48.4237 204.34 48.4237Z" fill="#1A1919"/>
</svg>
